<?xml version="1.0" encoding="utf-8"?>
<!-- Generator: Adobe Illustrator 16.0.2, SVG Export Plug-In . SVG Version: 6.00 Build 0)  -->
<!DOCTYPE svg PUBLIC "-//W3C//DTD SVG 1.1//EN" "http://www.w3.org/Graphics/SVG/1.1/DTD/svg11.dtd">
<svg version="1.1" id="Layer_1" xmlns="http://www.w3.org/2000/svg" xmlns:xlink="http://www.w3.org/1999/xlink" x="0px" y="0px"
	 width="242px" height="59px" viewBox="0 0 242 59" enable-background="new 0 0 242 59" xml:space="preserve">
<g id="_320748872">
	<path fill="#EC1A8D" d="M15.632,3.225c0.576-0.864,0.648-1.296,0.648-1.584c0-0.576-0.432-1.368-1.44-1.368
		c-2.52,0-7.344,5.688-8.567,7.272c-4.32,5.976-6.192,13.319-6.192,20.591c0,10.223,2.952,16.993,6.552,21.6
		c1.8,2.303,6.192,6.84,8.424,6.84c0.792,0,1.512-0.648,1.512-1.439c0-0.576-0.144-0.721-1.224-2.305
		c-1.224-1.801-3.456-5.184-5.04-11.879c-0.936-3.816-1.44-8.785-1.44-12.96c0-8.784,1.728-17.567,6.696-24.839L15.632,3.225z"/>
	<path fill="#373435" d="M66.606,23.024c0-2.088-0.072-4.824-2.736-7.056c-1.008-0.792-3.096-2.304-9-2.304
		c-3.456,0-6.84,0.432-10.008,1.872c-2.664,1.224-2.808,2.592-2.808,4.968l0.072,23.399c0,1.008,0.288,1.225,1.224,1.225h4.68
		c1.152,0,1.44-0.217,1.44-1.441V22.665c0-1.368,0-4.968,4.752-4.968c5.04,0,5.112,3.672,5.112,6.048V43.76
		c0,0.865,0.144,1.369,1.296,1.369h4.752c0.936,0,1.296-0.145,1.296-1.225V23.097L66.606,23.024z"/>
	<path fill="#373435" d="M33.847,4.305c-0.072-1.872-1.296-3.528-3.888-3.528s-4.032,1.656-4.032,3.744
		c0,2.088,1.512,3.528,4.032,3.528c2.304,0,3.888-1.512,3.816-3.744H33.847z"/>
	<path fill="#373435" d="M33.703,15.753c-0.072-1.008-0.144-1.296-1.296-1.296h-5.04c-1.008,0-1.152,0.432-1.152,1.224l0.072,28.151
		c0,0.936,0.072,1.225,1.008,1.225h5.184c1.152,0,1.296-0.361,1.296-1.297l-0.072-28.079V15.753z"/>
	<path fill="#373435" d="M112.685,26.552c-2.16-0.936-4.968-2.231-4.968-5.543c0-1.728,1.224-4.32,4.464-4.32
		c2.808,0,3.888,2.088,4.536,3.168c0.504,1.008,1.08,2.016,2.592,2.016c1.152,0,2.16-0.864,2.16-2.232
		c0-1.872-2.52-5.976-9.215-5.976c-6.48,0-9.432,4.032-9.432,8.28c0,5.472,4.104,7.416,8.927,9.719
		c2.592,1.225,5.688,2.664,5.688,6.264c0,2.16-1.44,4.537-4.536,4.537c-3.024,0-4.248-1.656-5.112-2.953
		c-0.36-0.646-0.576-1.08-0.792-1.367c-0.36-0.504-1.08-1.512-2.376-1.512c-1.152,0-2.448,0.863-2.448,2.52
		c0,1.729,2.304,6.695,10.224,6.695c1.512,0,4.68-0.145,7.128-2.303c1.8-1.584,2.808-4.105,2.735-6.553
		c0-5.543-4.175-7.56-7.271-9.072l-2.52-1.152L112.685,26.552z"/>
	<path fill="#373435" d="M135.58,15.393c0-0.936-0.217-1.152-1.152-1.152h-3.096c-1.008,0-1.008,0.36-1.008,1.152l0.072,28.439
		c0,0.863,0,1.08,0.863,1.08h3.168c0.864,0,1.152-0.072,1.152-1.08l-0.072-28.439H135.58z"/>
	<path fill="#373435" d="M168.771,16.761c0.504-0.144,0.648-0.144,0.648-0.576c0-0.144-0.145-1.8-0.792-1.8
		c-0.36,0-4.968,0.864-5.832,0.864c-1.439,0-2.16-0.288-3.527-0.792c-1.225-0.432-2.521-0.792-4.608-0.792
		c-6.264,0-10.656,4.176-10.656,10.151c0,1.656,0.361,3.456,1.225,5.112c1.296,2.593,2.88,3.529,4.032,4.177
		c-1.656,1.439-5.257,4.463-5.257,6.982c0,2.809,2.952,3.527,4.536,3.961c-3.456,2.23-6.191,4.967-6.191,8.135
		c0,2.809,2.231,5.184,5.904,6.191c1.296,0.361,3.023,0.648,5.472,0.648c13.031,0,17.352-7.488,17.352-11.52
		c0-6.48-6.912-6.984-9.504-7.127l-6.336-0.361c-3.456-0.143-6.048-0.359-6.048-2.23c0-1.152,0.936-2.449,2.376-3.744
		c1.152,0.215,2.16,0.504,3.6,0.504c4.68,0,10.656-2.881,10.656-10.081c0-3.528-1.225-5.112-2.017-6.335l5.04-1.224L168.771,16.761z
		 M151.132,44.408c1.512,0.145,7.848,0.359,9.144,0.432c1.872,0.145,5.831,0.504,5.831,3.961c0,3.814-5.615,6.479-10.151,6.479
		c-4.176,0-8.495-1.439-8.567-5.111c0-2.447,1.8-3.959,3.672-5.688L151.132,44.408z M160.635,22.521
		c0.145,0.72,0.217,1.44,0.217,2.16c0,4.824-2.881,6.407-5.473,6.407c-3.096,0-6.479-2.735-6.479-8.063
		c0-4.968,3.168-6.552,5.832-6.552c1.368,0,2.52,0.504,3.312,1.152c0.36,0.36,1.944,1.583,2.592,5.04V22.521z"/>
	<path fill="#373435" d="M199.01,23.241c0-3.528-0.072-9.792-11.304-9.72c-0.647,0-6.191,0-10.151,2.088
		c-2.016,1.008-2.376,2.088-2.376,4.32l0.072,23.831c0,1.008,0.288,1.225,1.151,1.152h2.88c0.864,0,1.225-0.145,1.225-1.152
		l-0.072-21.815c0-1.512,0.072-5.256,6.407-5.256c6.912,0,6.912,4.392,6.912,7.2V43.76c0,1.08,0.36,1.152,1.296,1.152h3.24
		c0.647-0.145,0.72-0.648,0.72-1.152V23.313V23.241z"/>
	<path fill="#373435" d="M213.337,15.321c0-0.936-0.216-1.152-1.151-1.152h-3.096c-1.009,0-1.009,0.36-1.009,1.152l0.072,28.439
		c0,0.865,0,1.08,0.864,1.08h3.168c0.863,0,1.151-0.072,1.151-1.08l-0.071-28.439H213.337z"/>
	<path fill="#373435" d="M241.849,22.88c-0.072-3.167-0.145-9.503-8.856-9.432c-6.335,0-10.799,3.528-10.728,7.056
		c0,1.872,1.513,2.448,2.376,2.448c1.8,0,2.232-1.44,2.664-2.52c0.504-1.152,1.512-3.816,4.968-3.888
		c4.464,0,4.464,4.032,4.464,6.335v3.024c-9.432,2.808-16.127,4.751-16.056,11.591c0,8.064,8.784,8.064,10.368,8.064
		c2.52,0,6.12-0.432,8.352-1.656c2.16-1.152,2.448-2.664,2.52-5.328V22.88H241.849z M236.736,38c0,1.584-0.072,4.32-4.68,4.32
		c-6.048,0-6.048-5.111-6.048-5.615c0-4.537,4.248-5.904,10.728-7.993V38z"/>
	<path fill="#373435" d="M213.913,3.513c-0.144-1.8-1.512-2.952-3.168-2.952c-1.872,0-3.239,1.296-3.239,3.167
		c0,1.656,1.224,3.096,3.168,3.096c2.016,0,3.167-1.584,3.167-3.24L213.913,3.513z"/>
	<path fill="#373435" d="M136.156,3.657c-0.145-1.8-1.512-2.952-3.168-2.952c-1.872,0-3.24,1.296-3.24,3.168
		c0,1.656,1.225,3.096,3.168,3.096c2.016,0,3.168-1.584,3.168-3.24L136.156,3.657z"/>
	<path fill="#EC1A8D" d="M74.526,3.153c-0.576-0.864-0.648-1.296-0.648-1.584c0-0.576,0.432-1.368,1.44-1.368
		c2.52,0,7.344,5.688,8.568,7.271c4.392,5.976,6.192,13.248,6.264,20.591c0,10.225-2.88,16.992-6.479,21.6
		c-1.8,2.305-6.192,6.912-8.352,6.912c-0.792,0-1.512-0.576-1.512-1.439c0-0.576,0.144-0.721,1.224-2.305
		c1.224-1.801,3.456-5.256,4.968-11.951c0.936-3.816,1.44-8.785,1.44-12.96c0-8.784-1.728-17.567-6.84-24.839L74.526,3.153z"/>
</g>
</svg>
