<svg width="242" height="59" xmlns="http://www.w3.org/2000/svg">
 <g>
  <title>Layer 1</title>
  <g id="_320748872">
   <path id="svg_1" d="m15.632,3.225c0.576,-0.864 0.648001,-1.296 0.648001,-1.584c0,-0.576 -0.432001,-1.368 -1.440001,-1.368c-2.52,0 -7.344,5.688 -8.567,7.272c-4.32,5.976 -6.192,13.319 -6.192,20.591c0,10.223001 2.952,16.993002 6.552,21.6c1.8,2.303001 6.192,6.84 8.424,6.84c0.792,0 1.512,-0.647999 1.512,-1.438999c0,-0.576 -0.144001,-0.721001 -1.224,-2.305c-1.224,-1.801003 -3.456,-5.184002 -5.04,-11.879002c-0.936,-3.815998 -1.440001,-8.785 -1.440001,-12.959999c0,-8.784 1.728001,-17.567 6.696,-24.839l0.071,0.071z" fill="#EC1A8D"/>
   <path id="svg_2" d="m66.606003,23.024c0,-2.087999 -0.072006,-4.823999 -2.736004,-7.056c-1.007999,-0.792001 -3.096001,-2.304001 -9,-2.304001c-3.455997,0 -6.84,0.432 -10.007999,1.872001c-2.663998,1.224 -2.807999,2.592 -2.807999,4.967999l0.071999,23.399c0,1.007999 0.288002,1.224998 1.223999,1.224998h4.68c1.152,0 1.440002,-0.216999 1.440002,-1.440998v-21.021999c0,-1.368 0,-4.968 4.751999,-4.968c5.040001,0 5.112,3.671999 5.112,6.048v20.014997c0,0.865002 0.144001,1.369003 1.296001,1.369003h4.752003c0.935997,0 1.295998,-0.145 1.295998,-1.225002v-20.806999l-0.071999,-0.073z" fill="#ffffff"/>
   <path id="svg_3" d="m33.847,4.305c-0.071999,-1.872 -1.296001,-3.528 -3.888,-3.528s-4.032,1.656 -4.032,3.744c0,2.088 1.511999,3.528 4.032,3.528c2.304001,0 3.888,-1.512 3.816002,-3.744h0.071999l0,0z" fill="#ffffff"/>
   <path id="svg_4" d="m33.702999,15.753c-0.071999,-1.008 -0.144001,-1.296 -1.295998,-1.296h-5.040001c-1.008001,0 -1.152,0.432 -1.152,1.224l0.072001,28.151001c0,0.936001 0.071999,1.224998 1.007999,1.224998h5.184c1.152,0 1.296001,-0.361 1.296001,-1.297001l-0.072002,-28.078999v0.072001l0,0z" fill="#ffffff"/>
   <path id="svg_5" d="m112.684998,26.552c-2.159996,-0.936001 -4.967995,-2.231001 -4.967995,-5.542999c0,-1.728001 1.223999,-4.320002 4.463997,-4.320002c2.807999,0 3.888,2.088001 4.536003,3.168001c0.503998,1.007999 1.079994,2.015999 2.591995,2.015999c1.152,0 2.160004,-0.863998 2.160004,-2.231998c0,-1.872002 -2.520004,-5.976001 -9.215004,-5.976001c-6.479996,0 -9.431999,4.032001 -9.431999,8.28c0,5.472 4.104004,7.416 8.927002,9.719c2.592003,1.225 5.687996,2.664 5.687996,6.264002c0,2.16 -1.439995,4.536999 -4.535995,4.536999c-3.024002,0 -4.248001,-1.656002 -5.112,-2.952999c-0.360001,-0.646 -0.576004,-1.080002 -0.792,-1.367001c-0.360001,-0.504002 -1.080002,-1.512001 -2.375999,-1.512001c-1.152,0 -2.448006,0.862999 -2.448006,2.52c0,1.729 2.304001,6.695 10.224007,6.695c1.511993,0 4.68,-0.145 7.127998,-2.303001c1.799995,-1.584 2.807999,-4.105 2.735001,-6.552998c0,-5.543001 -4.175003,-7.560001 -7.271004,-9.072001l-2.519997,-1.152l0.215996,-0.216z" fill="#ffffff"/>
   <path id="svg_6" d="m135.580002,15.393c0,-0.936 -0.216995,-1.151999 -1.152008,-1.151999h-3.095993c-1.007996,0 -1.007996,0.36 -1.007996,1.151999l0.071991,28.439001c0,0.862999 0,1.079998 0.863007,1.079998h3.167999c0.863998,0 1.151993,-0.071999 1.151993,-1.079998l-0.071991,-28.439001h0.072998l0,0z" fill="#ffffff"/>
   <path id="svg_7" d="m168.770996,16.761c0.503998,-0.143999 0.64801,-0.143999 0.64801,-0.576c0,-0.143999 -0.145004,-1.799999 -0.792007,-1.799999c-0.360001,0 -4.968002,0.863999 -5.832001,0.863999c-1.438995,0 -2.160004,-0.287999 -3.526993,-0.792c-1.225006,-0.432 -2.521011,-0.792 -4.608002,-0.792c-6.264008,0 -10.656006,4.176 -10.656006,10.151c0,1.656 0.361008,3.455999 1.225006,5.112c1.29599,2.593 2.87999,3.529001 4.031998,4.177c-1.656006,1.438999 -5.257004,4.463001 -5.257004,6.982002c0,2.808998 2.951996,3.526997 4.535995,3.960999c-3.455994,2.23 -6.190994,4.966999 -6.190994,8.134998c0,2.809002 2.231003,5.184002 5.904007,6.191002c1.29599,0.361 3.022995,0.647999 5.472,0.647999c13.030991,0 17.35199,-7.487999 17.35199,-11.52c0,-6.48 -6.912003,-6.983997 -9.503998,-7.126999l-6.335999,-0.361c-3.455994,-0.143002 -6.048004,-0.359001 -6.048004,-2.23c0,-1.152 0.936005,-2.449001 2.376007,-3.743999c1.151993,0.215 2.160004,0.503998 3.599991,0.503998c4.680008,0 10.656006,-2.880999 10.656006,-10.080999c0,-3.528 -1.225006,-5.112 -2.016998,-6.334999l5.039993,-1.224001l-0.072998,-0.143zm-17.638992,27.647001c1.511993,0.145 7.847992,0.358997 9.143997,0.431999c1.871994,0.145 5.830994,0.504002 5.830994,3.960999c0,3.814003 -5.61499,6.479 -10.151001,6.479c-4.175995,0 -8.494995,-1.438999 -8.566986,-5.111c0,-2.446999 1.799988,-3.959 3.671997,-5.688l0.070999,-0.072998zm9.502991,-21.887001c0.145004,0.719999 0.21701,1.440001 0.21701,2.16c0,4.823999 -2.881012,6.407 -5.473007,6.407c-3.095993,0 -6.479004,-2.734999 -6.479004,-8.063c0,-4.968 3.167999,-6.552 5.832001,-6.552c1.368011,0 2.520004,0.504 3.312012,1.152c0.360001,0.360001 1.944,1.583 2.591995,5.040001v-0.144001l-0.001007,0z" fill="#ffffff"/>
   <path id="svg_8" d="m199.009995,23.240999c0,-3.528 -0.071991,-9.791999 -11.304001,-9.719999c-0.646988,0 -6.190994,0 -10.151001,2.088c-2.015991,1.008 -2.375992,2.088 -2.375992,4.320001l0.072006,23.830997c0,1.008003 0.287994,1.225002 1.150986,1.152h2.880005c0.863998,0 1.225006,-0.145 1.225006,-1.152l-0.072006,-21.814999c0,-1.511999 0.072006,-5.256001 6.406998,-5.256001c6.912003,0 6.912003,4.392 6.912003,7.200001v19.870998c0,1.080002 0.360001,1.152 1.296005,1.152h3.23999c0.647003,-0.145 0.720001,-0.647999 0.720001,-1.152v-20.446999v-0.072001l0,0z" fill="#ffffff"/>
   <path id="svg_9" d="m213.337006,15.321c0,-0.936 -0.216003,-1.152 -1.151001,-1.152h-3.096008c-1.009003,0 -1.009003,0.360001 -1.009003,1.152l0.072006,28.438998c0,0.865002 0,1.080002 0.863998,1.080002h3.167999c0.863007,0 1.151001,-0.071999 1.151001,-1.080002l-0.070999,-28.438998h0.072006l0,0z" fill="#ffffff"/>
   <path id="svg_10" d="m241.848999,22.879999c-0.072006,-3.167 -0.145004,-9.502999 -8.856003,-9.431999c-6.334991,0 -10.798996,3.528 -10.727997,7.056c0,1.872 1.513,2.448 2.376007,2.448c1.799988,0 2.231995,-1.440001 2.663986,-2.52c0.504013,-1.151999 1.512009,-3.816 4.968002,-3.887999c4.464005,0 4.464005,4.032 4.464005,6.334999v3.024c-9.432007,2.808001 -16.126999,4.750999 -16.056,11.591c0,8.063999 8.783997,8.063999 10.367996,8.063999c2.520004,0 6.12001,-0.431999 8.352005,-1.655998c2.160004,-1.152 2.447998,-2.664001 2.520004,-5.327999v-15.694002h-0.072006l0,0zm-5.113007,15.120001c0,1.584 -0.071991,4.32 -4.679993,4.32c-6.048004,0 -6.048004,-5.111 -6.048004,-5.614998c0,-4.537003 4.248001,-5.904001 10.727997,-7.993002v9.288l0,0z" fill="#ffffff"/>
   <path id="svg_11" d="m213.912994,3.513c-0.143997,-1.8 -1.512009,-2.952 -3.167999,-2.952c-1.872009,0 -3.238998,1.296 -3.238998,3.167c0,1.656 1.223999,3.096 3.167999,3.096c2.015991,0 3.166992,-1.584 3.166992,-3.24l0.072006,-0.071z" fill="#ffffff"/>
   <path id="svg_12" d="m136.156006,3.657c-0.144989,-1.8 -1.511993,-2.952 -3.167999,-2.952c-1.871994,0 -3.23999,1.296 -3.23999,3.168c0,1.656 1.224991,3.096 3.167999,3.096c2.015991,0 3.167999,-1.584 3.167999,-3.24l0.071991,-0.072z" fill="#ffffff"/>
   <path id="svg_13" d="m74.526001,3.153c-0.576004,-0.864 -0.648003,-1.296 -0.648003,-1.584c0,-0.576 0.431999,-1.368 1.440002,-1.368c2.519997,0 7.344002,5.688 8.568001,7.271c4.391998,5.976 6.192001,13.247999 6.264,20.591c0,10.224998 -2.880005,16.992001 -6.479004,21.599998c-1.799995,2.305 -6.192001,6.912003 -8.351997,6.912003c-0.792,0 -1.512001,-0.576 -1.512001,-1.438999c0,-0.576 0.143997,-0.721001 1.223999,-2.305c1.223999,-1.801003 3.456001,-5.256001 4.968002,-11.951c0.935997,-3.816002 1.440002,-8.785 1.440002,-12.960001c0,-8.784 -1.728004,-17.567 -6.840004,-24.839l-0.072998,0.072z" fill="#EC1A8D"/>
  </g>
 </g>
</svg>